<?xml version="1.0" standalone="no"?>
<!DOCTYPE svg PUBLIC "-//W3C//DTD SVG 20010904//EN"
 "http://www.w3.org/TR/2001/REC-SVG-20010904/DTD/svg10.dtd">
<svg version="1.0" xmlns="http://www.w3.org/2000/svg"
 width="200.000000pt" height="200.000000pt" viewBox="0 0 200.000000 200.000000"
 preserveAspectRatio="xMidYMid meet">
<metadata>
Created by potrace 1.11, written by Peter Selinger 2001-2013
</metadata>
<g transform="translate(0.000000,200.000000) scale(0.100000,-0.100000)"
fill="#000000" stroke="none">
<path d="M588 1943 c-61 -64 -87 -108 -112 -197 -18 -59 -15 -90 3 -42 6 14
15 26 20 26 11 0 -13 -75 -30 -97 -16 -19 -26 -158 -10 -149 6 4 11 16 11 27
0 33 19 11 34 -39 11 -36 15 -41 17 -22 1 14 3 39 5 57 1 17 7 40 14 50 10 16
10 16 5 -4 -4 -13 -2 -23 3 -23 6 0 8 -18 6 -42 -3 -31 -2 -39 6 -28 5 8 10
27 10 43 0 31 15 36 28 10 13 -25 3 -85 -13 -79 -14 5 -9 -31 6 -40 5 -3 9 -9
9 -15 0 -13 -44 -11 -57 2 -7 7 -14 2 -21 -19 -9 -26 -7 -33 9 -48 10 -9 19
-26 19 -36 0 -23 29 -36 41 -17 10 17 23 5 34 -29 6 -22 5 -23 -14 -13 -29 16
-26 0 4 -29 14 -13 24 -31 23 -39 -5 -30 39 -25 57 6 16 27 16 27 11 3 -3 -14
-12 -58 -22 -98 -10 -39 -14 -75 -11 -79 15 -14 36 34 37 82 1 28 7 68 15 90
17 46 21 97 5 58 -13 -33 -21 -28 -13 8 4 22 0 38 -16 60 -18 24 -20 33 -11
45 10 11 10 14 -1 14 -11 0 -11 2 1 10 25 16 30 11 20 -16 -15 -39 -11 -43 8
-6 18 33 18 33 36 13 13 -15 26 -18 52 -14 l34 6 0 -52 c0 -28 6 -67 14 -85
14 -33 78 -86 104 -86 12 0 82 63 82 74 0 3 -15 0 -32 -5 -33 -9 -68 -4 -68
10 0 4 16 13 35 21 19 8 45 24 57 37 12 13 27 23 35 23 16 0 17 26 1 36 -7 5
-8 3 -3 -6 11 -18 -46 -4 -61 15 -6 8 -29 19 -50 24 -32 7 -27 12 11 11 3 0
18 6 35 15 16 8 42 15 58 15 37 0 52 28 19 34 -66 14 -135 16 -188 5 -33 -6
-62 -9 -65 -6 -6 6 51 38 63 36 5 -1 13 9 20 22 11 20 9 25 -17 40 -15 10 -31
23 -35 29 -10 16 14 68 34 74 48 15 206 -27 206 -55 0 -16 21 -23 30 -10 9 16
35 13 35 -4 0 -8 4 -15 10 -15 5 0 21 -12 36 -26 14 -15 19 -24 10 -21 -23 9
-20 -6 4 -21 33 -20 58 -79 84 -195 4 -15 11 -25 16 -22 6 3 11 -6 11 -22 1
-15 5 2 9 39 8 82 31 123 61 108 16 -9 26 -5 61 24 23 20 48 36 55 36 13 0 13
41 -3 240 -8 103 -8 122 4 129 13 8 6 85 -8 89 -5 2 -8 7 -5 12 3 5 -26 29
-64 54 l-69 46 -364 0 -364 0 -56 -57z m371 -700 c14 -11 14 -12 1 -13 -34 0
-60 13 -60 30 0 24 23 31 34 11 5 -9 17 -21 25 -28z m81 39 c0 -4 -4 -13 -9
-21 -8 -12 -12 -12 -25 -2 -9 7 -14 16 -12 20 6 9 46 12 46 3z"/>
<path d="M1543 1333 c7 -67 -3 -116 -31 -147 -21 -24 -35 -56 -24 -56 13 0 59
94 71 144 12 51 7 101 -11 112 -8 5 -9 -11 -5 -53z"/>
<path d="M1451 1285 c8 -30 6 -37 -21 -66 -16 -19 -29 -38 -27 -44 6 -18 35
-17 55 3 11 11 25 21 31 23 7 3 16 21 20 41 9 40 6 46 -41 65 -26 12 -26 12
-17 -22z"/>
<path d="M895 967 c-4 -10 -5 -21 -1 -24 10 -10 18 4 13 24 -4 17 -4 17 -12 0z"/>
<path d="M1432 895 c0 -16 2 -22 5 -12 2 9 2 23 0 30 -3 6 -5 -1 -5 -18z"/>
<path d="M747 903 c-15 -4 -18 -12 -15 -40 4 -33 3 -35 -24 -31 -38 6 -31 -15
8 -22 21 -4 29 -11 29 -25 0 -11 9 -25 20 -32 11 -7 14 -12 8 -13 -20 0 -15
-18 7 -25 13 -4 23 -18 27 -36 3 -16 11 -29 17 -29 6 0 4 -5 -4 -10 -8 -5 -10
-10 -4 -10 20 0 13 -61 -12 -108 -27 -50 -52 -80 -41 -49 4 9 3 17 -2 17 -13
0 -75 -23 -81 -29 -7 -9 -88 -51 -96 -51 -5 0 -3 5 4 12 22 22 13 26 -28 14
-51 -15 -53 -18 -80 -99 -26 -79 -39 -84 -16 -6 19 62 18 59 8 59 -27 0 -82
-178 -81 -260 l1 -45 18 55 c23 70 24 64 5 -33 -22 -114 -25 -107 54 -107 l69
0 -7 27 c-10 36 13 124 36 141 48 36 53 35 50 -10 -2 -40 0 -43 26 -46 19 -2
27 1 27 13 0 8 13 44 29 79 16 35 32 82 36 103 7 47 41 106 55 98 6 -4 1 -23
-11 -47 -19 -38 -20 -48 -10 -112 21 -141 21 -196 0 -217 -10 -10 -19 -21 -19
-24 0 -8 80 -6 81 3 6 70 6 205 -1 235 -10 45 -6 43 44 -32 29 -43 36 -62 35
-100 0 -35 -2 -41 -9 -26 -5 11 -9 34 -9 51 -1 16 -7 38 -13 47 -11 14 -13 2
-11 -69 1 -48 7 -92 13 -98 7 -7 10 -1 11 19 1 24 3 25 6 7 5 -25 21 -29 29
-7 4 8 11 15 17 15 6 0 0 -11 -13 -25 l-23 -25 22 0 c30 0 97 36 138 74 18 16
35 27 38 24 5 -5 -34 -41 -87 -80 -22 -16 -5 -17 334 -18 343 0 359 1 394 21
20 11 43 18 50 15 7 -3 20 2 29 10 16 17 35 11 35 -12 0 -8 5 -14 11 -14 6 0
8 7 5 16 -4 12 -2 15 9 10 8 -3 15 -1 15 4 0 6 -8 10 -17 10 -17 1 -17 1 0 11
9 6 16 13 13 17 -2 4 1 12 8 17 16 15 46 18 46 5 0 -6 5 -8 11 -5 6 4 8 13 5
21 -3 8 -1 14 5 14 6 0 9 7 5 15 -3 8 -1 15 4 15 6 0 10 20 10 45 0 29 -4 45
-12 45 -14 0 -58 59 -58 78 0 9 9 7 28 -5 15 -9 0 9 -33 40 -65 62 -113 102
-158 131 -29 17 -29 17 -22 -3 3 -12 2 -21 -3 -21 -12 0 -24 29 -17 39 2 4
-12 13 -31 19 -31 9 -36 8 -42 -8 -4 -11 -36 -40 -71 -64 -35 -25 -85 -66
-112 -91 -27 -25 -53 -43 -59 -40 -5 3 -10 0 -10 -7 0 -8 -10 -22 -22 -32 -21
-18 -22 -18 -50 14 -15 18 -28 38 -28 45 0 6 -11 22 -25 35 -14 13 -25 18 -25
12 0 -7 3 -12 8 -12 7 0 35 -50 46 -82 3 -11 -2 -19 -14 -23 -10 -3 -32 -35
-50 -73 -29 -63 -56 -102 -69 -102 -3 0 -7 12 -8 28 -2 15 -5 52 -9 83 -5 53
-3 59 38 126 24 39 59 81 78 94 19 13 42 31 51 39 9 8 42 31 73 50 62 38 148
116 185 169 24 33 24 34 6 47 -10 8 -26 14 -34 14 -9 0 -26 3 -38 6 -20 6 -23
3 -23 -24 0 -70 -119 -125 -297 -137 -109 -8 -115 -8 -124 6 -6 10 -17 8 -48
-6 -40 -18 -41 -19 -26 -41 8 -13 15 -26 15 -29 0 -13 -30 -3 -54 20 -15 14
-35 25 -46 25 -38 0 -81 70 -59 96 6 8 20 14 30 14 11 0 19 5 19 11 0 15 -26
39 -44 39 -53 0 6 44 76 56 51 9 62 14 52 23 -5 5 -48 5 -99 1 -49 -5 -91 -7
-93 -6 -2 2 6 20 17 40 21 36 21 36 1 36 -11 0 -20 5 -20 10 0 10 -3 11 -33 3z
m126 -110 c-7 -2 -19 -2 -25 0 -7 3 -2 5 12 5 14 0 19 -2 13 -5z m817 -312 c0
-27 -15 -34 -31 -15 -10 13 -10 17 2 25 22 13 29 11 29 -10z m-45 -41 c-3 -5
-11 -10 -16 -10 -6 0 -7 5 -4 10 3 6 11 10 16 10 6 0 7 -4 4 -10z m-810 -83
c7 -28 10 -56 6 -60 -8 -8 -25 45 -36 113 -9 51 12 14 30 -53z"/>
<path d="M849 893 c-7 -10 -9 -15 -5 -11 5 4 14 4 20 -2 8 -6 16 -2 24 11 10
16 10 19 -7 19 -10 0 -25 -8 -32 -17z"/>
<path d="M269 183 c-33 -47 -78 -146 -79 -170 0 -8 12 -13 29 -13 28 0 30 2
36 58 4 31 18 81 31 111 13 30 22 56 20 58 -2 3 -19 -17 -37 -44z"/>
<path d="M313 198 c-28 -47 -43 -102 -43 -155 l0 -43 55 0 54 0 -15 42 c-8 23
-18 46 -23 52 -16 21 -21 66 -11 87 6 11 10 28 8 37 -2 12 -9 6 -25 -20z"/>
<path d="M640 90 c0 -5 5 -10 11 -10 6 0 9 -6 6 -14 -7 -17 14 -66 27 -66 12
0 -3 70 -19 86 -16 17 -25 18 -25 4z"/>
</g>
</svg>
