<?xml version="1.0" standalone="no"?>
<!DOCTYPE svg PUBLIC "-//W3C//DTD SVG 20010904//EN"
 "http://www.w3.org/TR/2001/REC-SVG-20010904/DTD/svg10.dtd">
<svg version="1.0" xmlns="http://www.w3.org/2000/svg"
 width="512.000000pt" height="512.000000pt" viewBox="0 0 512.000000 512.000000"
 preserveAspectRatio="xMidYMid meet">
<metadata>
Created by potrace 1.11, written by Peter Selinger 2001-2013
</metadata>
<g transform="translate(0.000000,512.000000) scale(0.100000,-0.100000)"
fill="#000000" stroke="none">
<path d="M787 4484 c-4 -4 -7 -407 -7 -896 l0 -888 265 0 265 0 2 513 3 513
238 -293 c208 -255 242 -293 265 -292 23 0 61 43 262 292 l235 292 3 -512 2
-513 270 0 270 0 0 895 0 895 -242 0 -243 0 -275 -335 c-151 -184 -277 -335
-280 -334 -3 0 -127 150 -275 332 l-271 332 -240 3 c-132 1 -243 -1 -247 -4z"/>
<path d="M3357 3216 c-85 -32 -156 -102 -177 -177 -16 -55 -12 -150 9 -196 24
-51 84 -112 136 -138 54 -27 195 -28 242 -2 197 106 200 380 6 493 -55 33
-157 42 -216 20z"/>
<path d="M788 2454 c-5 -4 -8 -407 -8 -896 l0 -888 270 0 270 0 0 351 0 352
87 -6 c198 -14 261 -88 459 -539 l69 -158 288 0 c158 0 287 2 287 5 0 13 -245
528 -279 584 -37 62 -116 147 -170 182 l-24 15 68 39 c222 130 289 408 158
658 -77 146 -215 248 -393 289 -52 12 -1071 24 -1082 12z m824 -358 c76 -18
123 -51 149 -104 18 -36 21 -56 17 -118 -9 -144 -75 -183 -317 -187 l-136 -2
-3 213 -2 212 117 0 c65 0 144 -6 175 -14z"/>
<path d="M2797 1186 c-85 -32 -156 -102 -177 -177 -16 -55 -12 -150 9 -196 24
-51 84 -112 136 -138 54 -27 195 -28 242 -2 197 106 200 380 6 493 -55 33
-157 42 -216 20z"/>
</g>
</svg>
