<?xml version="1.0" encoding="iso-8859-1"?>
<!-- Generator: Adobe Illustrator 19.0.0, SVG Export Plug-In . SVG Version: 6.00 Build 0)  -->
<svg version="1.1" id="Capa_1" xmlns="http://www.w3.org/2000/svg" xmlns:xlink="http://www.w3.org/1999/xlink" x="0px" y="0px"
	 viewBox="0 0 511.417 511.417" style="enable-background:new 0 0 511.417 511.417;" xml:space="preserve">
<g transform="matrix(1.25 0 0 -1.25 0 45)">
	<g>
		<g>
			<path style="fill:#EF9645;" d="M55.313-67.606c10.706,7.475,26.817,6.042,36.42-1.889L80.708-53.486
				c-8.863,12.641-5.689,26.317,6.975,35.18c12.652,8.852,30.106,5.791,38.98-6.872l100.454-143.155l0.796,0.353L136.175-33.222
				c-8.943,12.766-7.259,28.945,5.507,37.899c12.766,8.92,30.379,5.837,39.322-6.952L299.56-169.756
				c8.943-12.777,4.562-30.276-8.203-39.219c-2.173-1.525-4.517-2.571-6.906-3.402v-103.868H170.672v35.419
				c-1.673,1.468-11.002,8.681-12.322,10.57L48.361-107.178C39.339-94.332,42.456-76.617,55.313-67.606"/>
			<path style="fill:#FFDC5D;" d="M30.669-160.779c0,0-12.88,18.773,5.905,31.642c18.762,12.868,31.63-5.905,31.63-5.905
				l59.745-87.131c2.048,3.436,4.312,6.827,6.815,10.16L51.843-91.067c0,0-12.868,18.762,5.905,31.63
				c18.762,12.88,31.63-5.894,31.63-5.894l78.006-113.744c2.901,2.378,5.86,4.745,8.932,7.077L85.897-40.129
				c0,0-12.868,18.762,5.894,31.63c18.762,12.88,31.63-5.894,31.63-5.894l90.431-131.857c3.322,2.037,6.61,3.812,9.899,5.666
				L139.247-17.339c0,0-12.868,18.762,5.905,31.63c18.762,12.88,31.63-5.894,31.63-5.894l89.361-130.321l7.157-10.433l6.428-9.387
				c-56.297-38.605-61.656-111.263-29.491-158.174c6.44-9.387,15.826-2.958,15.826-2.958
				c-38.616,56.309-26.817,119.58,29.491,158.185L278.921-61.61c0,0-6.201,21.902,15.69,28.103s28.092-15.69,28.092-15.69
				l19.172-56.934c7.6-22.574,15.69-45.067,26.396-66.332c30.231-60.075,12.174-134.747-44.84-173.841
				c-62.18-42.633-147.172-26.795-189.815,35.385c-2.253,3.3-4.142,6.519-5.939,9.739l-0.501-0.353L30.669-160.779z"/>
			<g>
				<path style="fill:#77B255;" d="M136.539-328.1c-45.511,0-91.5,45.989-91.5,91.5c0,6.292-4.608,11.378-10.9,11.378
					c-6.292,0-11.856-5.086-11.856-11.378c0-68.267,45.989-114.256,114.256-114.256c6.292,0,11.378,5.564,11.378,11.856
					S142.831-328.1,136.539-328.1"/>
				<path style="fill:#77B255;" d="M79.65-350.378c-34.133,0-56.889,22.756-56.889,56.889c0,6.292-5.086,11.378-11.378,11.378
					s-11.378-5.086-11.378-11.378c0-45.511,34.133-79.644,79.644-79.644c6.292,0,11.378,5.086,11.378,11.378
					S85.942-350.378,79.65-350.378"/>
				<path style="fill:#77B255;" d="M273.072,13.711c-6.281,0-11.378-5.097-11.378-11.378s5.097-11.378,11.378-11.378
					c45.511,0,91.022-40.835,91.022-91.022c0-6.281,5.097-11.378,11.378-11.378c6.281,0,11.378,5.097,11.378,11.378
					C386.85-37.33,341.339,13.711,273.072,13.711"/>
				<path style="fill:#77B255;" d="M329.961,36c-6.281,0-11.378-4.619-11.378-10.9c0-6.292,5.097-11.856,11.378-11.856
					c34.133,0,56.411-25.316,56.411-56.411c0-6.292,5.575-11.378,11.856-11.378c6.281,0,10.9,5.086,10.9,11.378
					C409.128,0.479,375.472,36,329.961,36"/>
			</g>
		</g>
	</g>
</g>
<g>
</g>
<g>
</g>
<g>
</g>
<g>
</g>
<g>
</g>
<g>
</g>
<g>
</g>
<g>
</g>
<g>
</g>
<g>
</g>
<g>
</g>
<g>
</g>
<g>
</g>
<g>
</g>
<g>
</g>
</svg>
